<svg xmlns="http://www.w3.org/2000/svg" viewBox="0 0 100 100">
  <defs>
    <linearGradient id="qrGrad" x1="0%" y1="0%" x2="100%" y2="100%">
      <stop offset="0%" style="stop-color:#6c5ce7"/>
      <stop offset="100%" style="stop-color:#a29bfe"/>
    </linearGradient>
  </defs>
  
  <!-- Background circle -->
  <circle cx="50" cy="50" r="48" fill="url(#qrGrad)"/>
  
  <!-- QR code pattern (simplified) -->
  <g fill="white">
    <!-- Top-left position marker -->
    <rect x="18" y="18" width="20" height="20" rx="2"/>
    <rect x="22" y="22" width="12" height="12" fill="#6c5ce7"/>
    <rect x="26" y="26" width="4" height="4" fill="white"/>
    
    <!-- Top-right position marker -->
    <rect x="62" y="18" width="20" height="20" rx="2"/>
    <rect x="66" y="22" width="12" height="12" fill="#6c5ce7"/>
    <rect x="70" y="26" width="4" height="4" fill="white"/>
    
    <!-- Bottom-left position marker -->
    <rect x="18" y="62" width="20" height="20" rx="2"/>
    <rect x="22" y="66" width="12" height="12" fill="#6c5ce7"/>
    <rect x="26" y="70" width="4" height="4" fill="white"/>
    
    <!-- Data modules (simplified pattern) -->
    <rect x="44" y="20" width="6" height="6"/>
    <rect x="52" y="28" width="6" height="6"/>
    <rect x="44" y="36" width="6" height="6"/>
    <rect x="20" y="44" width="6" height="6"/>
    <rect x="28" y="52" width="6" height="6"/>
    <rect x="52" y="44" width="6" height="6"/>
    <rect x="44" y="52" width="6" height="6"/>
    <rect x="62" y="52" width="6" height="6"/>
    <rect x="70" y="60" width="6" height="6"/>
    <rect x="52" y="68" width="6" height="6"/>
    <rect x="62" y="76" width="6" height="6"/>
    <rect x="44" y="74" width="6" height="6"/>
  </g>
</svg>
